<svg id="visual" viewBox="0 0 1920 1080" width="1920" height="1080" xmlns="http://www.w3.org/2000/svg" xmlns:xlink="http://www.w3.org/1999/xlink" version="1.1"><g><g transform="translate(1515 894)"><path d="M63.8 -50.8C84.2 -25.2 103.5 1.4 99.6 24.2C95.6 47.1 68.3 66.1 39.9 77.8C11.5 89.5 -17.9 93.9 -43.1 84C-68.4 74 -89.4 49.6 -93.2 23.9C-97 -1.8 -83.6 -28.9 -65.2 -54C-46.8 -79.2 -23.4 -102.5 -0.9 -101.8C21.6 -101.1 43.3 -76.5 63.8 -50.8Z" fill="none" stroke="#6d0e82" stroke-width="20"></path></g><g transform="translate(1146 551)"><path d="M20 -17C25.6 -8.9 29.7 -0.6 28.9 8.1C28.1 16.8 22.5 25.9 14.6 29.3C6.7 32.7 -3.4 30.4 -10.8 25.6C-18.3 20.8 -23.1 13.6 -26.8 4.1C-30.6 -5.3 -33.3 -17 -28.7 -24.9C-24 -32.8 -12 -37 -2.4 -35C7.2 -33.1 14.3 -25.1 20 -17Z" fill="none" stroke="#6d0e82" stroke-width="20"></path></g><g transform="translate(401 534)"><path d="M77.3 -64.6C91 -44.5 86.5 -12.9 76.2 11.4C65.8 35.6 49.6 52.4 26 69.9C2.4 87.4 -28.5 105.4 -54.6 98.6C-80.7 91.7 -101.8 59.9 -101.3 31.8C-100.8 3.7 -78.6 -20.6 -58.1 -42.3C-37.6 -64 -18.8 -83 6.5 -88.2C31.8 -93.4 63.6 -84.7 77.3 -64.6Z" stroke="#6d0e82" fill="none" stroke-width="20"></path></g><g transform="translate(779 272)"><path d="M50 -33.5C65 -21.2 77.3 -0.4 72.8 15.5C68.2 31.3 46.9 42.1 28.2 46.5C9.5 50.8 -6.4 48.6 -18.9 41.7C-31.3 34.7 -40.2 23 -45 8.4C-49.9 -6.1 -50.6 -23.5 -42.4 -34.3C-34.2 -45 -17.1 -49.2 0.2 -49.4C17.6 -49.6 35.1 -45.8 50 -33.5Z" stroke="#6d0e82" fill="none" stroke-width="20"></path></g><g transform="translate(1049 878)"><path d="M42.2 -36.4C54.7 -17.9 64.9 -0.4 61.7 14.2C58.5 28.9 41.8 40.6 21.8 53.5C1.7 66.3 -21.9 80.3 -40.8 74.9C-59.8 69.6 -74.2 44.9 -75.7 22C-77.1 -0.9 -65.6 -22 -50.8 -41C-36 -60 -18 -76.9 -1.6 -75.6C14.8 -74.3 29.7 -54.9 42.2 -36.4Z" stroke="#6d0e82" fill="none" stroke-width="20"></path></g><g transform="translate(296 173)"><path d="M50.3 -38.3C61.9 -25.6 65.8 -4.9 62.2 15.6C58.7 36.1 47.7 56.2 30.1 66.1C12.5 75.9 -11.8 75.4 -32 65.9C-52.3 56.3 -68.5 37.8 -74.1 16.1C-79.7 -5.6 -74.7 -30.6 -60.6 -43.9C-46.5 -57.2 -23.2 -58.8 -1.9 -57.2C19.4 -55.7 38.7 -51 50.3 -38.3Z" stroke="#6d0e82" fill="none" stroke-width="20"></path></g><g transform="translate(1503 475)"><path d="M44.4 -38.1C57.4 -19.2 67.5 -0.8 65.1 16.9C62.7 34.6 47.9 51.6 29.7 59.4C11.6 67.3 -9.8 66 -31.3 58.3C-52.8 50.5 -74.3 36.2 -79 17.5C-83.6 -1.1 -71.4 -24.2 -55.4 -43.7C-39.4 -63.2 -19.7 -79.3 -2 -77.7C15.8 -76.1 31.5 -56.9 44.4 -38.1Z" stroke="#6d0e82" fill="none" stroke-width="20"></path></g><g transform="translate(700 752)"><path d="M68.7 -54.1C81.4 -38.9 78.7 -10.8 71.7 14.9C64.7 40.6 53.3 64 33.1 76.7C12.9 89.5 -16.2 91.8 -32.2 79.3C-48.3 66.8 -51.3 39.6 -56.2 14C-61.1 -11.6 -67.9 -35.6 -58.8 -50C-49.8 -64.4 -24.9 -69.2 1.6 -70.5C28 -71.7 56 -69.4 68.7 -54.1Z" stroke="#6d0e82" fill="none" stroke-width="20"></path></g><g transform="translate(272 934)"><path d="M37.2 -30.1C49.3 -14.5 60.9 1 59.4 15.8C57.8 30.7 43.1 44.7 25.4 53.6C7.7 62.4 -12.8 65.9 -32.5 59.5C-52.2 53.1 -71 36.8 -72.9 19.2C-74.9 1.7 -60 -17.1 -45 -33.4C-30.1 -49.6 -15 -63.3 -1.2 -62.3C12.6 -61.3 25.2 -45.7 37.2 -30.1Z" stroke="#6d0e82" fill="none" stroke-width="20"></path></g><g transform="translate(1104 150)"><path d="M17.9 -16.1C20.8 -10.6 19 -3.3 16.7 2.5C14.3 8.4 11.4 12.9 6.4 16.6C1.4 20.3 -5.6 23.2 -10.5 21.1C-15.5 19 -18.4 11.9 -18.4 5.9C-18.4 -0.1 -15.4 -5 -11.8 -10.6C-8.3 -16.2 -4.1 -22.5 1.7 -23.9C7.5 -25.2 15 -21.6 17.9 -16.1Z" stroke="#6d0e82" fill="none" stroke-width="20"></path></g><g transform="translate(1741 299)"><path d="M14.7 -12.8C18.4 -7.1 20.3 -1 20.2 6.5C20 14.1 17.7 23.1 12.6 25.2C7.5 27.2 -0.4 22.2 -6.8 17.8C-13.3 13.3 -18.2 9.3 -20.1 3.8C-21.9 -1.7 -20.8 -8.6 -16.9 -14.4C-13 -20.1 -6.5 -24.6 -0.5 -24.2C5.5 -23.8 11 -18.5 14.7 -12.8Z" stroke="#6d0e82" fill="none" stroke-width="20"></path></g><g transform="translate(1409 175)"><path d="M56.8 -46.2C69.2 -29.7 72 -6.3 65.8 12.6C59.5 31.5 44.3 45.9 28.2 50.6C12.1 55.3 -4.9 50.4 -21.1 42.9C-37.2 35.4 -52.6 25.5 -56.9 11.6C-61.1 -2.3 -54.3 -20.1 -43 -36.4C-31.7 -52.7 -15.8 -67.5 3.2 -70C22.2 -72.5 44.3 -62.8 56.8 -46.2Z" stroke="#6d0e82" fill="none" stroke-width="20"></path></g><g transform="translate(1769 636)"><path d="M33.2 -27.4C38.8 -19.5 36.1 -5.9 31.7 4.8C27.3 15.6 21.2 23.5 11.6 30.6C2.1 37.7 -11 43.9 -19.3 40C-27.5 36 -30.9 21.9 -31.4 9.9C-32 -2 -29.7 -11.9 -23.9 -19.9C-18.2 -27.8 -9.1 -33.8 2.3 -35.6C13.8 -37.5 27.6 -35.3 33.2 -27.4Z" stroke="#6d0e82" fill="none" stroke-width="20"></path></g></g></svg>