<svg id="visual" viewBox="0 0 1920 1080" width="1920" height="1080" xmlns="http://www.w3.org/2000/svg" xmlns:xlink="http://www.w3.org/1999/xlink" version="1.1"><path d="M757 0L738.5 25.7C720 51.3 683 102.7 666.8 154.2C650.7 205.7 655.3 257.3 665 308.8C674.7 360.3 689.3 411.7 696.3 463C703.3 514.3 702.7 565.7 680.7 617C658.7 668.3 615.3 719.7 599 771.2C582.7 822.7 593.3 874.3 601 925.8C608.7 977.3 613.3 1028.7 615.7 1054.3L618 1080L0 1080L0 1054.3C0 1028.7 0 977.3 0 925.8C0 874.3 0 822.7 0 771.2C0 719.7 0 668.3 0 617C0 565.7 0 514.3 0 463C0 411.7 0 360.3 0 308.8C0 257.3 0 205.7 0 154.2C0 102.7 0 51.3 0 25.7L0 0Z" fill="#000f2a"></path><path d="M501 0L504.2 25.7C507.3 51.3 513.7 102.7 534.3 154.2C555 205.7 590 257.3 591.7 308.8C593.3 360.3 561.7 411.7 555 463C548.3 514.3 566.7 565.7 566 617C565.3 668.3 545.7 719.7 545.5 771.2C545.3 822.7 564.7 874.3 569.2 925.8C573.7 977.3 563.3 1028.7 558.2 1054.3L553 1080L0 1080L0 1054.3C0 1028.7 0 977.3 0 925.8C0 874.3 0 822.7 0 771.2C0 719.7 0 668.3 0 617C0 565.7 0 514.3 0 463C0 411.7 0 360.3 0 308.8C0 257.3 0 205.7 0 154.2C0 102.7 0 51.3 0 25.7L0 0Z" fill="#4a3651"></path><path d="M350 0L351.5 25.7C353 51.3 356 102.7 376.5 154.2C397 205.7 435 257.3 457.7 308.8C480.3 360.3 487.7 411.7 466 463C444.3 514.3 393.7 565.7 376.7 617C359.7 668.3 376.3 719.7 375.8 771.2C375.3 822.7 357.7 874.3 374.2 925.8C390.7 977.3 441.3 1028.7 466.7 1054.3L492 1080L0 1080L0 1054.3C0 1028.7 0 977.3 0 925.8C0 874.3 0 822.7 0 771.2C0 719.7 0 668.3 0 617C0 565.7 0 514.3 0 463C0 411.7 0 360.3 0 308.8C0 257.3 0 205.7 0 154.2C0 102.7 0 51.3 0 25.7L0 0Z" fill="#8d6473"></path><path d="M303 0L300.7 25.7C298.3 51.3 293.7 102.7 289.5 154.2C285.3 205.7 281.7 257.3 269.3 308.8C257 360.3 236 411.7 242 463C248 514.3 281 565.7 297.3 617C313.7 668.3 313.3 719.7 305.7 771.2C298 822.7 283 874.3 272.2 925.8C261.3 977.3 254.7 1028.7 251.3 1054.3L248 1080L0 1080L0 1054.3C0 1028.7 0 977.3 0 925.8C0 874.3 0 822.7 0 771.2C0 719.7 0 668.3 0 617C0 565.7 0 514.3 0 463C0 411.7 0 360.3 0 308.8C0 257.3 0 205.7 0 154.2C0 102.7 0 51.3 0 25.7L0 0Z" fill="#c99b96"></path><path d="M204 0L204.5 25.7C205 51.3 206 102.7 191.7 154.2C177.3 205.7 147.7 257.3 131.2 308.8C114.7 360.3 111.3 411.7 111.3 463C111.3 514.3 114.7 565.7 120.3 617C126 668.3 134 719.7 139.8 771.2C145.7 822.7 149.3 874.3 149 925.8C148.7 977.3 144.3 1028.7 142.2 1054.3L140 1080L0 1080L0 1054.3C0 1028.7 0 977.3 0 925.8C0 874.3 0 822.7 0 771.2C0 719.7 0 668.3 0 617C0 565.7 0 514.3 0 463C0 411.7 0 360.3 0 308.8C0 257.3 0 205.7 0 154.2C0 102.7 0 51.3 0 25.7L0 0Z" fill="#fbdac1"></path></svg>