<svg id="visual" viewBox="0 0 1920 2200" width="1920" height="2200" xmlns="http://www.w3.org/2000/svg" xmlns:xlink="http://www.w3.org/1999/xlink" version="1.1"><path d="M757 0L738.5 52.3C720 104.7 683 209.3 666.8 314.2C650.7 419 655.3 524 665 628.8C674.7 733.7 689.3 838.3 696.3 943C703.3 1047.7 702.7 1152.3 680.7 1257C658.7 1361.7 615.3 1466.3 599 1571.2C582.7 1676 593.3 1781 601 1885.8C608.7 1990.7 613.3 2095.3 615.7 2147.7L618 2200L0 2200L0 2147.7C0 2095.3 0 1990.7 0 1885.8C0 1781 0 1676 0 1571.2C0 1466.3 0 1361.7 0 1257C0 1152.3 0 1047.7 0 943C0 838.3 0 733.7 0 628.8C0 524 0 419 0 314.2C0 209.3 0 104.7 0 52.3L0 0Z" fill="#000f2a"></path><path d="M501 0L504.2 52.3C507.3 104.7 513.7 209.3 534.3 314.2C555 419 590 524 591.7 628.8C593.3 733.7 561.7 838.3 555 943C548.3 1047.7 566.7 1152.3 566 1257C565.3 1361.7 545.7 1466.3 545.5 1571.2C545.3 1676 564.7 1781 569.2 1885.8C573.7 1990.7 563.3 2095.3 558.2 2147.7L553 2200L0 2200L0 2147.7C0 2095.3 0 1990.7 0 1885.8C0 1781 0 1676 0 1571.2C0 1466.3 0 1361.7 0 1257C0 1152.3 0 1047.7 0 943C0 838.3 0 733.7 0 628.8C0 524 0 419 0 314.2C0 209.3 0 104.7 0 52.3L0 0Z" fill="#4a3651"></path><path d="M350 0L351.5 52.3C353 104.7 356 209.3 376.5 314.2C397 419 435 524 457.7 628.8C480.3 733.7 487.7 838.3 466 943C444.3 1047.7 393.7 1152.3 376.7 1257C359.7 1361.7 376.3 1466.3 375.8 1571.2C375.3 1676 357.7 1781 374.2 1885.8C390.7 1990.7 441.3 2095.3 466.7 2147.7L492 2200L0 2200L0 2147.7C0 2095.3 0 1990.7 0 1885.8C0 1781 0 1676 0 1571.2C0 1466.3 0 1361.7 0 1257C0 1152.3 0 1047.7 0 943C0 838.3 0 733.7 0 628.8C0 524 0 419 0 314.2C0 209.3 0 104.7 0 52.3L0 0Z" fill="#8d6473"></path><path d="M303 0L300.7 52.3C298.3 104.7 293.7 209.3 289.5 314.2C285.3 419 281.7 524 269.3 628.8C257 733.7 236 838.3 242 943C248 1047.7 281 1152.3 297.3 1257C313.7 1361.7 313.3 1466.3 305.7 1571.2C298 1676 283 1781 272.2 1885.8C261.3 1990.7 254.7 2095.3 251.3 2147.7L248 2200L0 2200L0 2147.7C0 2095.3 0 1990.7 0 1885.8C0 1781 0 1676 0 1571.2C0 1466.3 0 1361.7 0 1257C0 1152.3 0 1047.7 0 943C0 838.3 0 733.7 0 628.8C0 524 0 419 0 314.2C0 209.3 0 104.7 0 52.3L0 0Z" fill="#c99b96"></path><path d="M204 0L204.5 52.3C205 104.7 206 209.3 191.7 314.2C177.3 419 147.7 524 131.2 628.8C114.7 733.7 111.3 838.3 111.3 943C111.3 1047.7 114.7 1152.3 120.3 1257C126 1361.7 134 1466.3 139.8 1571.2C145.7 1676 149.3 1781 149 1885.8C148.7 1990.7 144.3 2095.3 142.2 2147.7L140 2200L0 2200L0 2147.7C0 2095.3 0 1990.7 0 1885.8C0 1781 0 1676 0 1571.2C0 1466.3 0 1361.7 0 1257C0 1152.3 0 1047.7 0 943C0 838.3 0 733.7 0 628.8C0 524 0 419 0 314.2C0 209.3 0 104.7 0 52.3L0 0Z" fill="#fbdac1"></path></svg>