<svg id="visual" viewBox="0 0 1920 2600" width="1920" height="2600" xmlns="http://www.w3.org/2000/svg" xmlns:xlink="http://www.w3.org/1999/xlink" version="1.1"><path d="M757 0L738.5 61.8C720 123.7 683 247.3 666.8 371.2C650.7 495 655.3 619 665 742.8C674.7 866.7 689.3 990.3 696.3 1114.2C703.3 1238 702.7 1362 680.7 1485.8C658.7 1609.7 615.3 1733.3 599 1857.2C582.7 1981 593.3 2105 601 2228.8C608.7 2352.7 613.3 2476.3 615.7 2538.2L618 2600L0 2600L0 2538.2C0 2476.3 0 2352.7 0 2228.8C0 2105 0 1981 0 1857.2C0 1733.3 0 1609.7 0 1485.8C0 1362 0 1238 0 1114.2C0 990.3 0 866.7 0 742.8C0 619 0 495 0 371.2C0 247.3 0 123.7 0 61.8L0 0Z" fill="#000f2a"></path><path d="M501 0L504.2 61.8C507.3 123.7 513.7 247.3 534.3 371.2C555 495 590 619 591.7 742.8C593.3 866.7 561.7 990.3 555 1114.2C548.3 1238 566.7 1362 566 1485.8C565.3 1609.7 545.7 1733.3 545.5 1857.2C545.3 1981 564.7 2105 569.2 2228.8C573.7 2352.7 563.3 2476.3 558.2 2538.2L553 2600L0 2600L0 2538.2C0 2476.3 0 2352.7 0 2228.8C0 2105 0 1981 0 1857.2C0 1733.3 0 1609.7 0 1485.8C0 1362 0 1238 0 1114.2C0 990.3 0 866.7 0 742.8C0 619 0 495 0 371.2C0 247.3 0 123.7 0 61.8L0 0Z" fill="#4a3651"></path><path d="M350 0L351.5 61.8C353 123.7 356 247.3 376.5 371.2C397 495 435 619 457.7 742.8C480.3 866.7 487.7 990.3 466 1114.2C444.3 1238 393.7 1362 376.7 1485.8C359.7 1609.7 376.3 1733.3 375.8 1857.2C375.3 1981 357.7 2105 374.2 2228.8C390.7 2352.7 441.3 2476.3 466.7 2538.2L492 2600L0 2600L0 2538.2C0 2476.3 0 2352.7 0 2228.8C0 2105 0 1981 0 1857.2C0 1733.3 0 1609.7 0 1485.8C0 1362 0 1238 0 1114.2C0 990.3 0 866.7 0 742.8C0 619 0 495 0 371.2C0 247.3 0 123.7 0 61.8L0 0Z" fill="#8d6473"></path><path d="M303 0L300.7 61.8C298.3 123.7 293.7 247.3 289.5 371.2C285.3 495 281.7 619 269.3 742.8C257 866.7 236 990.3 242 1114.2C248 1238 281 1362 297.3 1485.8C313.7 1609.7 313.3 1733.3 305.7 1857.2C298 1981 283 2105 272.2 2228.8C261.3 2352.7 254.7 2476.3 251.3 2538.2L248 2600L0 2600L0 2538.2C0 2476.3 0 2352.7 0 2228.8C0 2105 0 1981 0 1857.2C0 1733.3 0 1609.7 0 1485.8C0 1362 0 1238 0 1114.2C0 990.3 0 866.7 0 742.8C0 619 0 495 0 371.2C0 247.3 0 123.7 0 61.8L0 0Z" fill="#c99b96"></path><path d="M204 0L204.5 61.8C205 123.7 206 247.3 191.7 371.2C177.3 495 147.7 619 131.2 742.8C114.7 866.7 111.3 990.3 111.3 1114.2C111.3 1238 114.7 1362 120.3 1485.8C126 1609.7 134 1733.3 139.8 1857.2C145.7 1981 149.3 2105 149 2228.8C148.7 2352.7 144.3 2476.3 142.2 2538.2L140 2600L0 2600L0 2538.2C0 2476.3 0 2352.7 0 2228.8C0 2105 0 1981 0 1857.2C0 1733.3 0 1609.7 0 1485.8C0 1362 0 1238 0 1114.2C0 990.3 0 866.7 0 742.8C0 619 0 495 0 371.2C0 247.3 0 123.7 0 61.8L0 0Z" fill="#fbdac1"></path></svg>