<svg id="visual" viewBox="0 0 2560 2200" width="2560" height="2200" xmlns="http://www.w3.org/2000/svg" xmlns:xlink="http://www.w3.org/1999/xlink" version="1.1"><path d="M796 0L767 40.7C738 81.3 680 162.7 628.7 244.2C577.3 325.7 532.7 407.3 567.8 488.8C603 570.3 718 651.7 731.8 733.2C745.7 814.7 658.3 896.3 600.8 977.8C543.3 1059.3 515.7 1140.7 537.7 1222.2C559.7 1303.7 631.3 1385.3 669 1466.8C706.7 1548.3 710.3 1629.7 729.3 1711.2C748.3 1792.7 782.7 1874.3 776.5 1955.8C770.3 2037.3 723.7 2118.7 700.3 2159.3L677 2200L0 2200L0 2159.3C0 2118.7 0 2037.3 0 1955.8C0 1874.3 0 1792.7 0 1711.2C0 1629.7 0 1548.3 0 1466.8C0 1385.3 0 1303.7 0 1222.2C0 1140.7 0 1059.3 0 977.8C0 896.3 0 814.7 0 733.2C0 651.7 0 570.3 0 488.8C0 407.3 0 325.7 0 244.2C0 162.7 0 81.3 0 40.7L0 0Z" fill="#04253e"></path><path d="M455 0L464.5 40.7C474 81.3 493 162.7 480 244.2C467 325.7 422 407.3 444.7 488.8C467.3 570.3 557.7 651.7 555.8 733.2C554 814.7 460 896.3 438.3 977.8C416.7 1059.3 467.3 1140.7 472.3 1222.2C477.3 1303.7 436.7 1385.3 437.3 1466.8C438 1548.3 480 1629.7 492 1711.2C504 1792.7 486 1874.3 483.8 1955.8C481.7 2037.3 495.3 2118.7 502.2 2159.3L509 2200L0 2200L0 2159.3C0 2118.7 0 2037.3 0 1955.8C0 1874.3 0 1792.7 0 1711.2C0 1629.7 0 1548.3 0 1466.8C0 1385.3 0 1303.7 0 1222.2C0 1140.7 0 1059.3 0 977.8C0 896.3 0 814.7 0 733.2C0 651.7 0 570.3 0 488.8C0 407.3 0 325.7 0 244.2C0 162.7 0 81.3 0 40.7L0 0Z" fill="#725870"></path><path d="M358 0L348.8 40.7C339.7 81.3 321.3 162.7 316.2 244.2C311 325.7 319 407.3 320 488.8C321 570.3 315 651.7 304 733.2C293 814.7 277 896.3 286.3 977.8C295.7 1059.3 330.3 1140.7 343.8 1222.2C357.3 1303.7 349.7 1385.3 367.3 1466.8C385 1548.3 428 1629.7 437.5 1711.2C447 1792.7 423 1874.3 386 1955.8C349 2037.3 299 2118.7 274 2159.3L249 2200L0 2200L0 2159.3C0 2118.7 0 2037.3 0 1955.8C0 1874.3 0 1792.7 0 1711.2C0 1629.7 0 1548.3 0 1466.8C0 1385.3 0 1303.7 0 1222.2C0 1140.7 0 1059.3 0 977.8C0 896.3 0 814.7 0 733.2C0 651.7 0 570.3 0 488.8C0 407.3 0 325.7 0 244.2C0 162.7 0 81.3 0 40.7L0 0Z" fill="#c59d99"></path><path d="M298 0L269.5 40.7C241 81.3 184 162.7 166.3 244.2C148.7 325.7 170.3 407.3 169 488.8C167.7 570.3 143.3 651.7 151.8 733.2C160.3 814.7 201.7 896.3 229.7 977.8C257.7 1059.3 272.3 1140.7 275.7 1222.2C279 1303.7 271 1385.3 262.7 1466.8C254.3 1548.3 245.7 1629.7 237.2 1711.2C228.7 1792.7 220.3 1874.3 229.7 1955.8C239 2037.3 266 2118.7 279.5 2159.3L293 2200L0 2200L0 2159.3C0 2118.7 0 2037.3 0 1955.8C0 1874.3 0 1792.7 0 1711.2C0 1629.7 0 1548.3 0 1466.8C0 1385.3 0 1303.7 0 1222.2C0 1140.7 0 1059.3 0 977.8C0 896.3 0 814.7 0 733.2C0 651.7 0 570.3 0 488.8C0 407.3 0 325.7 0 244.2C0 162.7 0 81.3 0 40.7L0 0Z" fill="#fff0d5"></path></svg>