<svg id="visual" viewBox="0 0 1920 1080" width="1920" height="1080" xmlns="http://www.w3.org/2000/svg" xmlns:xlink="http://www.w3.org/1999/xlink" version="1.1"><g><g transform="translate(1437 486)"><path d="M0 -95.2L82.4 -47.6L82.4 47.6L0 95.2L-82.4 47.6L-82.4 -47.6Z" fill="#7d5ba6"></path></g><g transform="translate(1372 165)"><path d="M0 -12L10.4 -6L10.4 6L0 12L-10.4 6L-10.4 -6Z" fill="#7d5ba6"></path></g><g transform="translate(1371 760)"><path d="M0 -84L72.7 -42L72.7 42L0 84L-72.7 42L-72.7 -42Z" fill="#7d5ba6"></path></g><g transform="translate(1196 356)"><path d="M0 -11L9.5 -5.5L9.5 5.5L0 11L-9.5 5.5L-9.5 -5.5Z" fill="#7d5ba6"></path></g><g transform="translate(1739 607)"><path d="M0 -62L53.7 -31L53.7 31L0 62L-53.7 31L-53.7 -31Z" fill="#7d5ba6"></path></g><g transform="translate(1662 924)"><path d="M0 -20L17.3 -10L17.3 10L0 20L-17.3 10L-17.3 -10Z" fill="#7d5ba6"></path></g><g transform="translate(693 401)"><path d="M0 -21L18.2 -10.5L18.2 10.5L0 21L-18.2 10.5L-18.2 -10.5Z" fill="#7d5ba6"></path></g><g transform="translate(930 515)"><path d="M0 -51L44.2 -25.5L44.2 25.5L0 51L-44.2 25.5L-44.2 -25.5Z" fill="#7d5ba6"></path></g><g transform="translate(265 357)"><path d="M0 -38L32.9 -19L32.9 19L0 38L-32.9 19L-32.9 -19Z" fill="#7d5ba6"></path></g><g transform="translate(344 696)"><path d="M0 -79L68.4 -39.5L68.4 39.5L0 79L-68.4 39.5L-68.4 -39.5Z" fill="#7d5ba6"></path></g><g transform="translate(1722 347)"><path d="M0 -93L80.5 -46.5L80.5 46.5L0 93L-80.5 46.5L-80.5 -46.5Z" fill="#7d5ba6"></path></g><g transform="translate(132 154)"><path d="M0 -62L53.7 -31L53.7 31L0 62L-53.7 31L-53.7 -31Z" fill="#7d5ba6"></path></g><g transform="translate(877 886)"><path d="M0 -36L31.2 -18L31.2 18L0 36L-31.2 18L-31.2 -18Z" fill="#7d5ba6"></path></g><g transform="translate(553 105)"><path d="M0 -88L76.2 -44L76.2 44L0 88L-76.2 44L-76.2 -44Z" fill="#7d5ba6"></path></g><g transform="translate(1544 675)"><path d="M0 -45L39 -22.5L39 22.5L0 45L-39 22.5L-39 -22.5Z" fill="#7d5ba6"></path></g><g transform="translate(647 827)"><path d="M0 -58L50.2 -29L50.2 29L0 58L-50.2 29L-50.2 -29Z" fill="#7d5ba6"></path></g><g transform="translate(899 201)"><path d="M0 -24L20.8 -12L20.8 12L0 24L-20.8 12L-20.8 -12Z" fill="#7d5ba6"></path></g><g transform="translate(101 659)"><path d="M0 -73L63.2 -36.5L63.2 36.5L0 73L-63.2 36.5L-63.2 -36.5Z" fill="#7d5ba6"></path></g><g transform="translate(1113 914)"><path d="M0 -49L42.4 -24.5L42.4 24.5L0 49L-42.4 24.5L-42.4 -24.5Z" fill="#7d5ba6"></path></g><g transform="translate(739 640)"><path d="M0 -29L25.1 -14.5L25.1 14.5L0 29L-25.1 14.5L-25.1 -14.5Z" fill="#7d5ba6"></path></g><g transform="translate(305 936)"><path d="M0 -51L44.2 -25.5L44.2 25.5L0 51L-44.2 25.5L-44.2 -25.5Z" fill="#7d5ba6"></path></g><g transform="translate(532 650)"><path d="M0 -89L77.1 -44.5L77.1 44.5L0 89L-77.1 44.5L-77.1 -44.5Z" fill="#7d5ba6"></path></g><g transform="translate(1058 731)"><path d="M0 -19L16.5 -9.5L16.5 9.5L0 19L-16.5 9.5L-16.5 -9.5Z" fill="#7d5ba6"></path></g><g transform="translate(1792 101)"><path d="M0 -42L36.4 -21L36.4 21L0 42L-36.4 21L-36.4 -21Z" fill="#7d5ba6"></path></g><g transform="translate(1303 952)"><path d="M0 -31L26.8 -15.5L26.8 15.5L0 31L-26.8 15.5L-26.8 -15.5Z" fill="#7d5ba6"></path></g><g transform="translate(1605 175)"><path d="M0 -55L47.6 -27.5L47.6 27.5L0 55L-47.6 27.5L-47.6 -27.5Z" fill="#7d5ba6"></path></g><g transform="translate(335 165)"><path d="M0 -69L59.8 -34.5L59.8 34.5L0 69L-59.8 34.5L-59.8 -34.5Z" fill="#7d5ba6"></path></g><g transform="translate(506 312)"><path d="M0 -74L64.1 -37L64.1 37L0 74L-64.1 37L-64.1 -37Z" fill="#7d5ba6"></path></g><g transform="translate(1106 145)"><path d="M0 -41L35.5 -20.5L35.5 20.5L0 41L-35.5 20.5L-35.5 -20.5Z" fill="#7d5ba6"></path></g><g transform="translate(1161 567)"><path d="M0 -88L76.2 -44L76.2 44L0 88L-76.2 44L-76.2 -44Z" fill="#7d5ba6"></path></g><g transform="translate(129 856)"><path d="M0 -46L39.8 -23L39.8 23L0 46L-39.8 23L-39.8 -23Z" fill="#7d5ba6"></path></g><g transform="translate(500 959)"><path d="M0 -94L81.4 -47L81.4 47L0 94L-81.4 47L-81.4 -47Z" fill="#7d5ba6"></path></g><g transform="translate(1803 796)"><path d="M0 -23L19.9 -11.5L19.9 11.5L0 23L-19.9 11.5L-19.9 -11.5Z" fill="#7d5ba6"></path></g><g transform="translate(423 487)"><path d="M0 -57L49.4 -28.5L49.4 28.5L0 57L-49.4 28.5L-49.4 -28.5Z" fill="#7d5ba6"></path></g></g></svg>