<svg id="visual" viewBox="0 0 960 540" width="960" height="540" xmlns="http://www.w3.org/2000/svg" xmlns:xlink="http://www.w3.org/1999/xlink" version="1.1"><path d="M0 87L87 87L87 201L175 201L175 152L262 152L262 66L349 66L349 206L436 206L436 136L524 136L524 174L611 174L611 82L698 82L698 114L785 114L785 179L873 179L873 87L960 87L960 212L960 0L960 0L873 0L873 0L785 0L785 0L698 0L698 0L611 0L611 0L524 0L524 0L436 0L436 0L349 0L349 0L262 0L262 0L175 0L175 0L87 0L87 0L0 0Z" fill="#fff0d5"></path><path d="M0 185L87 185L87 298L175 298L175 233L262 233L262 152L349 152L349 293L436 293L436 195L524 195L524 271L611 271L611 158L698 158L698 174L785 174L785 282L873 282L873 185L960 185L960 320L960 210L960 85L873 85L873 177L785 177L785 112L698 112L698 80L611 80L611 172L524 172L524 134L436 134L436 204L349 204L349 64L262 64L262 150L175 150L175 199L87 199L87 85L0 85Z" fill="#7e6075"></path><path d="M0 309L87 309L87 357L175 357L175 303L262 303L262 249L349 249L349 341L436 341L436 276L524 276L524 363L611 363L611 298L698 298L698 249L785 249L785 336L873 336L873 255L960 255L960 411L960 318L960 183L873 183L873 280L785 280L785 172L698 172L698 156L611 156L611 269L524 269L524 193L436 193L436 291L349 291L349 150L262 150L262 231L175 231L175 296L87 296L87 183L0 183Z" fill="#04253e"></path><path d="M0 368L87 368L87 417L175 417L175 347L262 347L262 330L349 330L349 384L436 384L436 363L524 363L524 444L611 444L611 368L698 368L698 336L785 336L785 390L873 390L873 325L960 325L960 455L960 409L960 253L873 253L873 334L785 334L785 247L698 247L698 296L611 296L611 361L524 361L524 274L436 274L436 339L349 339L349 247L262 247L262 301L175 301L175 355L87 355L87 307L0 307Z" fill="#7e6075"></path><path d="M0 541L87 541L87 541L175 541L175 541L262 541L262 541L349 541L349 541L436 541L436 541L524 541L524 541L611 541L611 541L698 541L698 541L785 541L785 541L873 541L873 541L960 541L960 541L960 453L960 323L873 323L873 388L785 388L785 334L698 334L698 366L611 366L611 442L524 442L524 361L436 361L436 382L349 382L349 328L262 328L262 345L175 345L175 415L87 415L87 366L0 366Z" fill="#fff0d5"></path></svg>