<svg width="44" height="44" viewBox="0 0 44 44" fill="none" xmlns="http://www.w3.org/2000/svg">
<g clip-path="url(#clip0_2_3059)">
<g clip-path="url(#clip1_2_3059)">
<mask id="mask0_2_3059" style="mask-type:luminance" maskUnits="userSpaceOnUse" x="1" y="0" width="42" height="44">
<path d="M42.5577 0H1.09998V44H42.5577V0Z" fill="white"/>
</mask>
<g mask="url(#mask0_2_3059)">
<path d="M32.2857 20.7929C32.588 20.7533 32.8942 20.7533 33.1965 20.7929C33.3649 20.4175 33.3884 19.7709 33.2419 19.0655C33.0231 18.0183 32.7268 17.3818 32.114 17.4829C31.5011 17.5839 31.4809 18.3416 31.6981 19.3888C31.7906 19.8937 31.991 20.3726 32.2857 20.7929Z" fill="black"/>
<path d="M27.0281 21.6211C27.4658 21.813 27.7336 21.9409 27.8396 21.8298C27.9069 21.7591 27.8867 21.6279 27.7823 21.4561C27.5006 21.0501 27.1078 20.7338 26.6509 20.5453C26.1633 20.3447 25.6323 20.2726 25.109 20.3356C24.5855 20.3987 24.0868 20.595 23.6608 20.9055C23.3679 21.1211 23.09 21.4106 23.1287 21.5975C23.1423 21.6565 23.1861 21.7003 23.2887 21.7153C23.5312 21.7423 24.3747 21.3164 25.3461 21.2558C25.9281 21.2391 26.5054 21.3645 27.0281 21.6211Z" fill="black"/>
<path d="M26.1508 22.1227C25.7529 22.1663 25.3758 22.3236 25.0649 22.5757C24.9204 22.6799 24.8211 22.8352 24.7871 23.0101C24.7863 23.0285 24.7894 23.0468 24.7961 23.064C24.8028 23.0812 24.813 23.0967 24.8258 23.1098C24.8388 23.123 24.8543 23.1332 24.8714 23.1401C24.8884 23.1469 24.9068 23.1502 24.9252 23.1498C25.068 23.1286 25.2077 23.0895 25.341 23.0336C25.9268 22.8139 26.5593 22.7484 27.1778 22.8433C27.4641 22.8754 27.6005 22.8938 27.6627 22.7963C27.678 22.7673 27.6846 22.7346 27.6816 22.702C27.6787 22.6693 27.6662 22.6384 27.6459 22.6127C27.5129 22.3921 26.9371 22.0302 26.1508 22.1227Z" fill="black"/>
<path d="M30.5111 23.968C30.8983 24.1583 31.3244 24.0841 31.4641 23.7997C31.6038 23.5151 31.4 23.1261 31.0145 22.9443C30.6289 22.7625 30.1996 22.8281 30.0616 23.1127C29.9235 23.3973 30.1239 23.7778 30.5111 23.968Z" fill="black"/>
<path d="M33.0017 21.793C32.6868 21.793 32.4259 22.1297 32.4174 22.5641C32.409 22.9985 32.6599 23.3502 32.9747 23.3553C33.2895 23.3604 33.5506 23.0186 33.5573 22.5842C33.564 22.1498 33.3148 21.798 33.0017 21.793Z" fill="black"/>
<path d="M11.5382 29.531C11.4427 29.5573 11.3443 29.5715 11.2452 29.5731C11.1403 29.5744 11.0367 29.5497 10.9435 29.5013C10.8504 29.4528 10.7707 29.382 10.7115 29.2953C10.5684 29.0765 10.5768 28.7481 10.7351 28.3727C10.757 28.3222 10.7806 28.2649 10.8092 28.2043C11.0617 27.6385 11.4826 26.689 11.0095 25.7882C10.8561 25.4698 10.6262 25.1943 10.3403 24.9863C10.0545 24.7783 9.72159 24.6443 9.37137 24.5963C9.0399 24.5552 8.70343 24.5936 8.38966 24.708C8.07588 24.8225 7.79377 25.0098 7.56652 25.2545C6.87117 26.0223 6.76175 27.0661 6.89306 27.4348C6.94189 27.5696 7.01933 27.6032 7.07658 27.615C7.19443 27.6318 7.36953 27.5443 7.47897 27.2497C7.48738 27.2295 7.49749 27.1958 7.51096 27.1537C7.57842 26.918 7.67514 26.6919 7.79886 26.4802C7.88668 26.3396 8.00206 26.2181 8.13804 26.1232C8.27404 26.0284 8.42783 25.9619 8.59017 25.928C8.75447 25.8921 8.92432 25.8893 9.08972 25.9199C9.25511 25.9506 9.41269 26.0141 9.55321 26.1065C9.79099 26.2624 9.96762 26.4958 10.0532 26.767C10.1388 27.0382 10.1281 27.3305 10.0229 27.5948C9.85595 28.0152 9.77301 28.4642 9.7788 28.9164C9.85626 29.8525 10.4337 30.2297 10.9573 30.2634C11.481 30.297 11.8126 29.999 11.9018 29.7919C11.9223 29.7566 11.9313 29.7158 11.9277 29.6751C11.924 29.6345 11.908 29.5959 11.8817 29.5646C11.7958 29.472 11.6662 29.5024 11.5382 29.531Z" fill="black"/>
<path d="M40.9362 27.8573C40.9177 27.7884 40.7931 27.3321 40.6214 26.7832C40.523 26.4643 40.4066 26.1511 40.2729 25.8454C40.9597 24.8151 40.9733 23.894 40.8806 23.3722C40.7777 22.6998 40.4585 22.0792 39.9715 21.6044C39.4294 21.0336 38.3182 20.451 36.7592 20.0116C36.5806 19.9628 35.9914 19.8011 35.9392 19.7843C35.9392 19.7507 35.8971 17.8549 35.8618 17.0417C35.8455 16.2253 35.7238 15.4143 35.4998 14.6291C35.1631 13.4051 34.5687 12.3326 33.8296 11.6474C35.8685 9.53438 37.1413 7.20761 37.1379 5.20914C37.1295 1.36879 32.4154 0.207076 26.6034 2.61467L25.3711 3.1366C25.3711 3.1366 23.1452 0.947874 23.1116 0.922619C16.4848 -4.85728 -4.2356 18.1731 2.38949 23.7661L3.83741 24.9935C3.44573 26.0436 3.30784 27.1715 3.43502 28.285C3.58992 29.8238 4.38291 31.2987 5.67089 32.4401C6.8932 33.5228 8.49938 34.2063 10.0584 34.2063C12.6361 40.1462 18.5255 43.7913 25.4317 43.9966C32.8396 44.2155 39.0589 40.7405 41.6653 34.4959C41.8336 34.0565 42.5576 32.0833 42.5576 30.339C42.5576 28.5948 41.5676 27.8573 40.9362 27.8573ZM10.6309 32.5328C10.4039 32.5705 10.1739 32.5862 9.94394 32.58C7.70639 32.521 5.29039 30.5057 5.04962 28.1166C4.7836 25.4767 6.13388 23.4446 8.52296 22.963C8.8554 22.8973 9.1947 22.873 9.53313 22.8906C10.8716 22.9647 12.8448 23.9917 13.2944 26.9078C13.6816 29.4905 13.0536 32.1186 10.6275 32.5328H10.6309ZM8.12898 21.3821C6.67679 21.6509 5.38601 22.4738 4.52938 23.6769C4.04954 23.2779 3.15722 22.4983 3.00065 22.2037C1.72108 19.7742 4.39637 15.0499 6.26521 12.3814C10.8851 5.79 18.1213 0.801398 21.4718 1.70551C22.0155 1.8604 23.8188 3.95147 23.8188 3.95147C21.5481 5.25227 19.3896 6.73955 17.3654 8.39794C13.1815 11.617 10.0231 16.3026 8.12898 21.3821ZM16.6616 12.3561C18.3031 10.4587 20.3252 8.80875 22.1368 7.88275C22.1503 7.87564 22.1658 7.87312 22.1809 7.87555C22.196 7.87798 22.2099 7.88524 22.2206 7.89624C22.2311 7.90724 22.238 7.92139 22.2398 7.93657C22.2417 7.95174 22.2386 7.96712 22.231 7.9804C22.0115 8.37124 21.8417 8.78811 21.726 9.22124C21.7226 9.23581 21.7237 9.25107 21.7292 9.26498C21.7347 9.27891 21.7443 9.29084 21.7567 9.29923C21.769 9.30761 21.7837 9.31204 21.7986 9.31194C21.8136 9.31184 21.8282 9.30722 21.8405 9.29868C22.9668 8.53094 24.9266 7.70765 26.6472 7.60159C26.6631 7.60096 26.6789 7.60537 26.6921 7.61418C26.7054 7.623 26.7155 7.63577 26.7211 7.65069C26.7267 7.66559 26.7275 7.6819 26.7233 7.69726C26.7191 7.71263 26.7101 7.72628 26.6978 7.73627C26.4136 7.95511 26.1593 8.21041 25.9418 8.49559C25.9338 8.50646 25.929 8.51929 25.9278 8.53272C25.9266 8.54614 25.929 8.55965 25.9349 8.57177C25.9408 8.5839 25.9499 8.59418 25.9611 8.60153C25.9725 8.60887 25.9855 8.61299 25.9991 8.61344C27.3997 8.6609 28.7722 9.02039 30.0162 9.66571C30.092 9.7078 30.0381 9.85259 29.9539 9.83408C27.5571 9.29391 25.0694 9.30082 22.6755 9.85428C20.1249 10.4755 18.1803 11.4352 16.7575 12.4589C16.7435 12.4654 16.7276 12.4672 16.7124 12.4641C16.6971 12.4612 16.6832 12.4535 16.6726 12.4421C16.6619 12.4307 16.6552 12.4163 16.6533 12.4009C16.6513 12.3855 16.6542 12.3698 16.6616 12.3561ZM41.012 30.9249C40.6903 32.8745 39.862 34.4605 38.4697 35.9101C37.6003 36.8514 36.5658 37.6251 35.4173 38.1931C34.7771 38.5293 34.1097 38.8109 33.4222 39.035C28.1743 40.7489 22.8002 38.8666 21.0693 34.8259C20.9287 34.5166 20.8121 34.1968 20.7208 33.8696C19.9834 31.2028 20.6097 28.0038 22.5728 25.9885C22.7106 25.8686 22.7974 25.7006 22.8153 25.5187C22.7975 25.3548 22.732 25.1996 22.6267 25.0726C21.9415 24.0793 19.5692 22.3788 20.0458 19.1075C20.3825 16.7504 22.4466 15.0955 24.3659 15.193L24.8524 15.2217C25.6843 15.2705 26.4116 15.3766 27.0951 15.4052C28.2416 15.4557 29.2737 15.2891 30.4943 14.2721C30.9052 13.9354 31.2351 13.6307 31.7941 13.5364C31.9588 13.4933 32.1293 13.4768 32.2992 13.4876C32.5991 13.4976 32.8904 13.5902 33.141 13.7552C34.1209 14.4069 34.259 15.9844 34.3095 17.1377C34.3381 17.796 34.4189 19.3904 34.4459 19.8483C34.5081 20.8939 34.7826 21.0421 35.3398 21.2239C35.653 21.3282 35.9425 21.404 36.3702 21.5252C37.6666 21.8888 38.4344 22.2576 38.9192 22.7307C39.1693 22.9762 39.3324 23.2966 39.3839 23.6432C39.5355 24.7577 38.5185 26.1333 35.8231 27.3842C32.8767 28.7531 29.3024 29.0981 26.8341 28.8238L25.9687 28.7261C23.9921 28.4601 22.8658 31.0125 24.0511 32.7668C24.8155 33.8931 26.8965 34.6272 28.9791 34.6272C33.7522 34.6272 37.4225 32.5901 38.7879 30.829C38.8283 30.7767 38.8317 30.77 38.8973 30.6741C38.963 30.5781 38.9091 30.5158 38.825 30.573C37.7103 31.3374 32.7555 34.3662 27.457 33.4554C27.0375 33.3805 26.6255 33.2679 26.2263 33.1187C25.7583 32.9369 24.7818 32.4873 24.6622 31.4839C28.9386 32.8072 31.6307 31.5563 31.6307 31.5563C31.6556 31.545 31.6763 31.5263 31.6901 31.5028C31.704 31.4793 31.7104 31.4521 31.7082 31.425C31.7065 31.4088 31.7017 31.3931 31.6939 31.3788C31.6861 31.3646 31.6756 31.3519 31.6629 31.3418C31.6502 31.3316 31.6356 31.324 31.62 31.3195C31.6043 31.315 31.5881 31.3136 31.5719 31.3155C31.5719 31.3155 28.0665 31.834 24.7565 30.6218C25.1168 29.4433 26.0765 29.8726 27.5261 29.9904C29.7789 30.123 32.038 29.8782 34.2101 29.2665C35.7102 28.8372 37.6801 27.9887 39.2087 26.7815C39.5393 27.5431 39.7739 28.3428 39.9075 29.1621C40.1601 29.1246 40.4182 29.1713 40.6416 29.2951C40.9396 29.4787 41.1703 29.8811 41.012 30.9249Z" fill="black"/>
</g>
</g>
</g>
<defs>
<clipPath id="clip0_2_3059">
<rect width="44" height="44" fill="white"/>
</clipPath>
<clipPath id="clip1_2_3059">
<rect width="44" height="44" fill="white"/>
</clipPath>
</defs>
</svg>
