<svg width="44" height="44" viewBox="0 0 44 44" fill="none" xmlns="http://www.w3.org/2000/svg">
<g clip-path="url(#clip0_1_49)">
<g clip-path="url(#clip1_1_49)">
<g clip-path="url(#clip2_1_49)">
<mask id="mask0_1_49" style="mask-type:luminance" maskUnits="userSpaceOnUse" x="0" y="0" width="44" height="44">
<path d="M0 0H44V44H0V0Z" fill="white"/>
</mask>
<g mask="url(#mask0_1_49)">
<path fill-rule="evenodd" clip-rule="evenodd" d="M2.75 12.7188C2.75 12.1492 3.21174 11.6875 3.78125 11.6875H16.3281C16.8976 11.6875 17.3594 12.1492 17.3594 12.7188V14.7812C17.3594 15.3508 16.8976 15.8125 16.3281 15.8125H3.78125C3.21174 15.8125 2.75 15.3508 2.75 14.7812V12.7188ZM2.75 20.9688C2.75 20.3992 3.21174 19.9375 3.78125 19.9375H16.3281C16.8976 19.9375 17.3594 20.3992 17.3594 20.9688V23.0312C17.3594 23.6008 16.8976 24.0625 16.3281 24.0625H3.78125C3.21174 24.0625 2.75 23.6008 2.75 23.0312V20.9688ZM2.75 29.2188C2.75 28.6492 3.21174 28.1875 3.78125 28.1875H16.3281C16.8976 28.1875 17.3594 28.6492 17.3594 29.2188V31.2812C17.3594 31.8508 16.8976 32.3125 16.3281 32.3125H3.78125C3.21174 32.3125 2.75 31.8508 2.75 31.2812V29.2188Z" fill="#FF6D5A"/>
<path d="M6.35938 6.53125C6.35938 7.10076 6.82112 7.5625 7.39062 7.5625H17.378C18.8968 7.5625 20.128 8.79373 20.128 10.3125V15.125C20.128 17.4434 21.0108 19.5557 22.4586 21.144C22.893 21.6205 22.893 22.3795 22.4586 22.856C21.0108 24.4443 20.128 26.5566 20.128 28.875V33.6875C20.128 35.2063 18.8968 36.4375 17.378 36.4375H7.39062C6.82112 36.4375 6.35938 36.8992 6.35938 37.4688V39.5312C6.35938 40.1008 6.82112 40.5625 7.39062 40.5625H17.378C21.175 40.5625 24.253 37.4845 24.253 33.6875V28.875C24.253 26.2171 26.4076 24.0625 29.0655 24.0625C29.1973 24.0625 29.3237 24.0101 29.4169 23.9169C29.5101 23.8237 29.5625 23.6973 29.5625 23.5655V20.4345C29.5625 20.3027 29.5101 20.1763 29.4169 20.0831C29.3237 19.9899 29.1973 19.9375 29.0655 19.9375C26.4076 19.9375 24.253 17.7829 24.253 15.125V10.3125C24.253 6.51552 21.175 3.4375 17.378 3.4375H7.39062C6.82112 3.4375 6.35938 3.89924 6.35938 4.46875V6.53125Z" fill="#FF6D5A"/>
<path fill-rule="evenodd" clip-rule="evenodd" d="M32.3125 20.9688C32.3125 20.3992 32.7742 19.9375 33.3438 19.9375H42.9688C43.5383 19.9375 44 20.3992 44 20.9688V23.0312C44 23.6008 43.5383 24.0625 42.9688 24.0625H33.3438C32.7742 24.0625 32.3125 23.6008 32.3125 23.0312V20.9688Z" fill="#FF6D5A"/>
</g>
</g>
</g>
</g>
<defs>
<clipPath id="clip0_1_49">
<rect width="44" height="44" fill="white"/>
</clipPath>
<clipPath id="clip1_1_49">
<rect width="44" height="44" fill="white"/>
</clipPath>
<clipPath id="clip2_1_49">
<rect width="44" height="44" fill="white"/>
</clipPath>
</defs>
</svg>
