<svg width="38" height="38" viewBox="0 0 38 38" fill="none" xmlns="http://www.w3.org/2000/svg">
<g clip-path="url(#clip0_601_39192)">
<g clip-path="url(#clip1_601_39192)">
<g clip-path="url(#clip2_601_39192)">
<path fill-rule="evenodd" clip-rule="evenodd" d="M0 0.000244141H37.203V37.2032H0V0.000244141Z" fill="url(#paint0_linear_601_39192)"/>
<path fill-rule="evenodd" clip-rule="evenodd" d="M18.6002 28.1195L14.8396 29.3735L13.3732 28.3954L14.9698 27.8621L14.48 26.3926L11.7394 27.3056L10.8496 26.7135V22.477C10.8496 22.3332 10.8096 22.1922 10.734 22.0698C10.6584 21.9475 10.5503 21.8485 10.4218 21.7841L7.74934 20.4463V16.754L10.0745 15.5914L12.3997 16.754V19.3737C12.3997 19.6682 12.5656 19.9379 12.8275 20.0697L15.9278 21.6198L16.6223 20.2324L13.9498 18.8962V16.754L16.6223 15.4193C16.7508 15.3549 16.8589 15.2559 16.9345 15.1336C17.0101 15.0112 17.0501 14.8702 17.0501 14.7264V12.4012H15.5V14.2458L13.1748 15.4084L10.8496 14.2458V10.493L12.3997 9.45597V12.4012H13.9498V8.42514L14.8396 7.83144L18.6002 9.08394V28.1195ZM27.1259 26.3523C27.2277 26.3525 27.3284 26.3728 27.4224 26.4119C27.5163 26.451 27.6017 26.5083 27.6735 26.5804C27.7453 26.6525 27.8022 26.7381 27.841 26.8322C27.8798 26.9263 27.8996 27.0271 27.8994 27.1289C27.8992 27.2307 27.8789 27.3315 27.8398 27.4254C27.8007 27.5194 27.7434 27.6047 27.6713 27.6765C27.5992 27.7484 27.5136 27.8053 27.4195 27.844C27.3254 27.8828 27.2246 27.9026 27.1228 27.9024C26.9172 27.902 26.7203 27.82 26.5752 27.6743C26.4301 27.5287 26.3489 27.3314 26.3493 27.1258C26.3497 26.9203 26.4317 26.7233 26.5774 26.5782C26.723 26.4332 26.9203 26.3519 27.1259 26.3523ZM25.5758 9.30096C25.7813 9.30137 25.9783 9.38342 26.1234 9.52906C26.2684 9.67471 26.3497 9.87201 26.3493 10.0776C26.3489 10.2831 26.2668 10.4801 26.1212 10.6252C25.9755 10.7702 25.7782 10.8515 25.5727 10.8511C25.4709 10.8509 25.3701 10.8306 25.2762 10.7915C25.1822 10.7523 25.0969 10.6951 25.0251 10.623C24.88 10.4773 24.7987 10.28 24.7992 10.0745C24.7996 9.86891 24.8816 9.67193 25.0273 9.52687C25.1729 9.38181 25.3702 9.30054 25.5758 9.30096ZM28.676 18.6017C28.8816 18.6021 29.0785 18.6842 29.2236 18.8298C29.3687 18.9754 29.4499 19.1728 29.4495 19.3783C29.4491 19.5839 29.3671 19.7808 29.2214 19.9259C29.0758 20.071 28.8785 20.1522 28.6729 20.1518C28.5711 20.1516 28.4704 20.1314 28.3764 20.0922C28.2825 20.0531 28.1971 19.9958 28.1253 19.9237C27.9803 19.7781 27.899 19.5808 27.8994 19.3752C27.8998 19.1697 27.9819 18.9727 28.1275 18.8276C28.2732 18.6826 28.4705 18.6013 28.676 18.6017ZM26.4934 20.1518C26.8143 21.0509 27.6669 21.7019 28.676 21.7019C29.278 21.68 29.848 21.4254 30.2661 20.9917C30.6842 20.5581 30.9178 19.9791 30.9178 19.3768C30.9178 18.7744 30.6842 18.1955 30.2661 17.7618C29.848 17.3282 29.278 17.0736 28.676 17.0516C27.6669 17.0516 26.8143 17.7026 26.4934 18.6017H20.1503V15.5015H25.5758C25.7813 15.5015 25.9785 15.4198 26.1238 15.2744C26.2692 15.1291 26.3508 14.9319 26.3508 14.7264V12.2586C27.2514 11.9377 27.901 11.0851 27.901 10.076C27.901 8.79406 26.8577 7.75083 25.5758 7.75083C24.2938 7.75083 23.2506 8.79406 23.2506 10.076C23.2506 11.0836 23.9001 11.9362 24.8007 12.2586V13.9513H20.1503V8.52589C20.1502 8.36329 20.0989 8.20484 20.0038 8.07298C19.9087 7.94112 19.7745 7.84252 19.6202 7.79113L14.9698 6.24101C14.858 6.20373 14.7391 6.19245 14.6223 6.20803C14.5054 6.22361 14.3937 6.26564 14.2955 6.33092L9.64514 9.43117C9.53888 9.50188 9.45173 9.59774 9.39142 9.71023C9.33112 9.82273 9.29953 9.94838 9.29947 10.076V14.2458L6.62705 15.5836C6.49847 15.648 6.39036 15.747 6.3148 15.8693C6.23924 15.9917 6.19922 16.1327 6.19922 16.2765V20.9269C6.19922 21.2214 6.36508 21.4896 6.62705 21.6213L9.29947 22.9544V27.1274C9.29953 27.255 9.33112 27.3807 9.39142 27.4932C9.45173 27.6057 9.53888 27.7015 9.64514 27.7722L14.2955 30.8725C14.3937 30.9378 14.5054 30.9798 14.6223 30.9954C14.7391 31.0109 14.858 30.9997 14.9698 30.9624L19.6202 29.4123C19.7745 29.3609 19.9087 29.2623 20.0038 29.1304C20.0989 28.9986 20.1502 28.8401 20.1503 28.6775V24.8022H23.7048L25.027 26.126L25.0472 26.1058C24.8953 26.4159 24.8007 26.76 24.8007 27.1274C24.8007 28.4093 25.8439 29.4526 27.1259 29.4526C28.4078 29.4526 29.4511 28.4093 29.4511 27.1274C29.4511 25.8454 28.4078 24.8022 27.1259 24.8022C26.757 24.8022 26.4128 24.8952 26.1044 25.0502L26.1245 25.0301L24.5744 23.4799C24.5024 23.4077 24.4169 23.3504 24.3227 23.3113C24.2286 23.2722 24.1276 23.2521 24.0256 23.2521H20.1503V20.1518H26.4934Z" fill="white"/>
</g>
</g>
</g>
<defs>
<linearGradient id="paint0_linear_601_39192" x1="0" y1="3720.3" x2="3720.3" y2="0.000244141" gradientUnits="userSpaceOnUse">
<stop stop-color="#055F4E"/>
<stop offset="1" stop-color="#56C0A7"/>
</linearGradient>
<clipPath id="clip0_601_39192">
<rect width="37.203" height="37.203" fill="white"/>
</clipPath>
<clipPath id="clip1_601_39192">
<rect width="37.203" height="37.203" fill="white"/>
</clipPath>
<clipPath id="clip2_601_39192">
<rect width="37.203" height="37.203" fill="white"/>
</clipPath>
</defs>
</svg>
