<svg width="39" height="38" viewBox="0 0 39 38" fill="none" xmlns="http://www.w3.org/2000/svg">
<g clip-path="url(#clip0_601_39393)">
<g clip-path="url(#clip1_601_39393)">
<path d="M29.2386 8.93091H9.90234V28.2672H29.2386V8.93091Z" fill="white"/>
<path d="M29.2383 36.9689L37.9395 28.2677H29.2383V36.9689Z" fill="#EA4335"/>
<path d="M37.9395 8.93091H29.2383V28.2672H37.9395V8.93091Z" fill="#FBBC04"/>
<path d="M29.2386 28.2677H9.90234V36.9689H29.2386V28.2677Z" fill="#34A853"/>
<path d="M1.19922 28.2677V34.0688C1.19916 34.4497 1.27415 34.8269 1.4199 35.1788C1.56565 35.5307 1.77931 35.8505 2.04867 36.1198C2.31803 36.3891 2.63781 36.6027 2.98975 36.7484C3.34168 36.8941 3.71888 36.969 4.09978 36.9689H9.9009V28.2677H1.19922Z" fill="#188038"/>
<path d="M37.9395 8.93095V3.1303C37.9396 2.74939 37.8647 2.3722 37.719 2.02026C37.5733 1.66833 37.3597 1.34854 37.0904 1.07918C36.8211 0.809824 36.5013 0.596165 36.1494 0.450414C35.7975 0.304663 35.4203 0.229676 35.0394 0.229736H29.2383V8.93095H37.9395Z" fill="#1967D2"/>
<path d="M29.2372 0.229614H4.09978C3.71884 0.229494 3.34161 0.304437 2.98964 0.450161C2.63767 0.595885 2.31787 0.809534 2.0485 1.0789C1.77914 1.34827 1.56549 1.66807 1.41977 2.02004C1.27404 2.372 1.1991 2.74923 1.19922 3.13017V28.2676H9.90044V8.93083H29.2367V0.229614H29.2372ZM13.8669 23.9314C13.144 23.4433 12.6439 22.7301 12.3707 21.7877L14.0483 21.0966C14.2008 21.6764 14.4667 22.126 14.846 22.4453C15.415 22.9243 15.6823 22.9216 16.2187 22.9216C16.7673 22.9216 17.2386 22.7549 17.6327 22.4215C18.2237 21.9214 18.2251 21.6623 18.2251 21.1475C18.2303 20.8984 18.1765 20.6516 18.0681 20.4273C17.9597 20.2029 17.7998 20.0074 17.6014 19.8566C17.1858 19.5227 16.6637 19.3565 16.04 19.3565H15.0706V17.6959H15.9408C16.4772 17.6959 16.9293 17.5509 17.297 17.261C17.8485 16.8261 17.848 16.5744 17.848 16.0693C17.848 15.6201 17.6836 15.2616 17.3548 14.9937C16.8616 14.5919 16.6104 14.59 16.1052 14.59C15.6123 14.5894 15.2207 14.7208 14.9305 14.9841C14.4951 15.379 14.4226 15.5815 14.2972 15.9535L12.6366 15.2624C12.8566 14.6387 13.2602 14.0876 13.8522 13.6114C14.4442 13.1352 15.201 12.8959 16.1195 12.8959C16.7991 12.8953 17.4098 13.0266 17.9514 13.2899C18.7638 13.6849 18.9181 13.9182 19.2253 14.3825C19.5325 14.8468 19.6845 15.3712 19.6845 15.9512C19.6845 16.5427 19.5419 17.0439 19.2565 17.4548C18.8285 18.0711 18.6209 18.1799 18.2053 18.3999V18.4991C18.7422 18.7203 19.2085 19.0837 19.5541 19.5503C19.905 20.0212 20.0806 20.5851 20.0809 21.2421C20.0813 22.2277 19.9142 22.4871 19.5808 23.0019C19.2473 23.5168 18.7854 23.9227 18.2007 24.2176C17.6134 24.5124 16.9534 24.6621 16.221 24.6621C15.3727 24.6644 14.5893 24.4205 13.8669 23.9324V23.9314ZM24.1709 15.6073L22.3293 16.9391L21.4085 15.5421L24.7128 13.1591H25.9793V24.4008H24.1713V15.6068L24.1709 15.6073Z" fill="#4285F4"/>
</g>
</g>
<defs>
<clipPath id="clip0_601_39393">
<rect width="37.203" height="37.6577" fill="white" transform="translate(0.964844)"/>
</clipPath>
<clipPath id="clip1_601_39393">
<rect width="37.203" height="37.6577" fill="white" transform="translate(0.964844)"/>
</clipPath>
</defs>
</svg>
