<svg width="38" height="38" viewBox="0 0 38 38" fill="none" xmlns="http://www.w3.org/2000/svg">
<path d="M37.0433 22.5608C36.8239 21.896 36.2486 21.4328 35.5048 21.3217C35.1541 21.2694 34.7525 21.2916 34.277 21.3895C33.4484 21.5604 32.8341 21.6254 32.3854 21.6381C34.0783 18.7795 35.4553 15.5194 36.2477 12.4508C37.5291 7.48882 36.8446 5.22861 36.0443 4.20608C33.9263 1.49958 30.8361 0.0458152 27.108 0.00109129C25.1194 -0.0233892 23.3733 0.36924 22.4628 0.651707C21.5652 0.497972 20.657 0.41486 19.7464 0.403136C17.9532 0.374418 16.3691 0.765635 15.0151 1.56878C13.9253 1.20084 12.8079 0.92031 11.6735 0.729856C8.40584 0.19364 5.77278 0.611691 3.84635 1.97271C1.51412 3.61996 0.432739 6.48277 0.632819 10.4806C0.696374 11.7498 1.40631 15.6121 2.52441 19.2748C3.16702 21.3801 3.852 23.1281 4.56099 24.4712C5.5661 26.376 6.64136 27.4974 7.84891 27.9004C8.52589 28.1259 9.75509 28.2836 11.0488 27.2069C11.2411 27.4342 11.4682 27.6296 11.7215 27.786C12.0902 28.0185 12.5407 28.2082 12.9907 28.3208C14.6131 28.7266 16.1327 28.6249 17.4288 28.0567L17.4481 28.6979L17.4763 29.5919C17.5531 31.5051 17.6835 32.9923 18.069 34.0332C18.0902 34.0906 18.1185 34.1777 18.1486 34.27C18.3411 34.8589 18.6627 35.8452 19.4809 36.6178C20.3283 37.4176 21.3537 37.6629 22.2924 37.6629C22.7632 37.6629 23.2128 37.6012 23.6068 37.5165C25.0116 37.2156 26.6071 36.7566 27.7609 35.1136C28.8522 33.5601 29.3823 31.2203 29.4783 27.5336L29.5132 27.2351L29.5358 27.0402L29.7928 27.0628L29.8592 27.0675C31.2899 27.1325 33.0393 26.8293 34.1136 26.3303C34.9624 25.9363 37.6831 24.4999 37.0423 22.5608" fill="black"/>
<path d="M34.5986 22.9379C30.3447 23.8154 30.0523 22.3753 30.0523 22.3753C34.544 15.7105 36.4215 7.25064 34.8011 5.18016C30.3805 -0.467768 22.7284 2.20343 22.6009 2.27263L22.5599 2.28016C21.7196 2.10551 20.779 2.00193 19.7216 1.98452C17.7966 1.95297 16.3367 2.48919 15.2285 3.32953C15.2285 3.32953 1.57826 -2.29392 2.21287 10.402C2.34798 13.1029 6.08408 30.8385 10.5405 25.4815C12.1694 23.5226 13.7432 21.8664 13.7432 21.8664C14.5247 22.3857 15.4606 22.6507 16.4417 22.5552L16.5179 22.4907C16.4952 22.7452 16.5055 23.0015 16.5485 23.2533C15.4003 24.5362 15.7379 24.7612 13.4428 25.2334C11.1205 25.7122 12.4848 26.5639 13.3755 26.7865C14.4555 27.0568 16.9534 27.439 18.6411 25.0762L18.5738 25.3459C19.0239 25.7061 19.3393 27.6895 19.2866 29.4874C19.2339 31.2853 19.1981 32.5197 19.5526 33.4838C19.9071 34.448 20.2602 36.6173 23.2774 35.9705C25.7984 35.43 27.1048 34.0304 27.2865 31.6953C27.4155 30.0354 27.7074 30.2806 27.7258 28.7963L27.9597 28.0934C28.2295 25.8431 28.0026 25.1172 29.5557 25.4547L29.9332 25.4877C31.0763 25.5394 32.5724 25.3036 33.4504 24.8959C35.3411 24.0184 36.4625 22.5533 34.5982 22.9384" fill="#336791"/>
<path d="M16.0263 11.6096C15.6431 11.5564 15.2956 11.6058 15.12 11.7385C15.0833 11.7642 15.0522 11.797 15.0285 11.835C15.0049 11.8731 14.9893 11.9155 14.9826 11.9598C14.9604 12.118 15.0711 12.2927 15.1393 12.3826C15.3319 12.6377 15.6129 12.8133 15.8916 12.8519C15.9316 12.8573 15.9719 12.8602 16.0122 12.8604C16.4764 12.8604 16.8986 12.4989 16.9358 12.2319C16.9824 11.8977 16.4966 11.675 16.0263 11.6096ZM28.726 11.6199C28.6893 11.3582 28.2232 11.2833 27.7812 11.345C27.3391 11.4066 26.9112 11.6058 26.9469 11.8685C26.9757 12.0728 27.3443 12.4212 27.7807 12.4212C27.8174 12.4212 27.8546 12.4187 27.8923 12.4136C28.1837 12.3732 28.3974 12.1881 28.4986 12.0817C28.6535 11.9193 28.7425 11.7381 28.7265 11.6204M36.0127 22.8381C35.8503 22.3475 35.3287 22.1898 34.461 22.3687C31.8854 22.9002 30.9631 22.5321 30.6604 22.3089C32.6622 19.2592 34.309 15.573 35.1973 12.1335C35.6182 10.5042 35.8508 8.99109 35.8696 7.75812C35.8908 6.40416 35.6601 5.40987 35.1846 4.8021C33.2676 2.35264 30.4542 1.0387 27.0482 1.00292C24.707 0.976555 22.7288 1.57586 22.3451 1.74439C21.4786 1.53112 20.5906 1.41709 19.6984 1.40449C17.9405 1.37625 16.4213 1.79712 15.1634 2.65441C13.968 2.21726 12.7342 1.89382 11.4781 1.68837C8.49243 1.20771 6.12017 1.57162 4.42678 2.77116C2.40667 4.20233 1.47406 6.76101 1.65484 10.3752C1.71557 11.5912 2.40856 15.332 3.5017 18.9146C4.94087 23.6299 6.50527 26.2993 8.15158 26.8482C8.36422 26.9201 8.58714 26.957 8.81161 26.9574C9.41233 26.9574 10.1482 26.6867 10.9141 25.7659C11.8484 24.645 12.8148 23.5514 13.8122 22.4864C14.4538 22.834 15.168 23.026 15.8973 23.0471L15.902 23.1041C15.7561 23.2773 15.6365 23.4289 15.5343 23.5584C15.0306 24.1977 14.9256 24.3309 13.3038 24.6652C12.8424 24.7603 11.6175 25.0126 11.5996 25.8718C11.5803 26.81 13.0477 27.2041 13.2148 27.246C13.7976 27.3919 14.3588 27.464 14.8945 27.464C16.1967 27.464 17.3426 27.036 18.2582 26.2079C18.23 29.5533 18.3694 32.8492 18.7709 33.8538C19.1 34.6758 19.9036 36.6851 22.4421 36.6851C22.8144 36.6851 23.2245 36.6418 23.6755 36.5453C26.3246 35.977 27.4751 34.8062 27.92 32.2249C28.1582 30.8456 28.5669 27.5511 28.759 25.7838C29.1648 25.9104 29.6869 25.9683 30.2513 25.9683C31.4287 25.9683 32.7874 25.7183 33.6395 25.3224C34.5966 24.878 36.3239 23.7872 36.0108 22.8395L36.0127 22.8381ZM29.7038 10.8973C29.6949 11.4189 29.6233 11.8925 29.547 12.3868C29.4651 12.9183 29.3804 13.4682 29.3592 14.1358C29.338 14.785 29.4195 15.4605 29.4976 16.113C29.6563 17.4317 29.8187 18.7894 29.1893 20.1292C29.0847 19.944 28.9916 19.7525 28.9106 19.5558C28.8324 19.3661 28.6625 19.0615 28.4271 18.6397C27.5119 16.9981 25.3684 13.1542 26.4653 11.5855C26.792 11.1185 27.6216 10.6393 29.7038 10.8973ZM27.18 2.05935C30.2316 2.12667 32.6452 3.2683 34.3546 5.45224C35.6653 7.12727 34.2219 14.7496 30.0432 21.325L29.9166 21.1654L29.8639 21.0995C30.9438 19.3162 30.7325 17.5517 30.5446 15.9873C30.4674 15.3452 30.3944 14.7388 30.4128 14.1696C30.4321 13.5656 30.5117 13.0483 30.5889 12.5473C30.684 11.9302 30.7805 11.2918 30.7536 10.5395C30.7753 10.4468 30.7812 10.3512 30.7711 10.2565C30.7033 9.53483 29.8794 7.37537 28.1997 5.42023C27.2812 4.35109 25.9414 3.15438 24.1124 2.34746C25.1208 2.1372 26.15 2.04056 27.18 2.05935ZM10.1039 25.0917C9.25979 26.1062 8.67697 25.9118 8.48536 25.8482C7.23639 25.4316 5.7878 22.7924 4.51011 18.6067C3.40472 14.985 2.75882 11.3436 2.7075 10.3224C2.54602 7.09291 3.32893 4.84212 5.03456 3.63269C7.81027 1.66436 12.3735 2.84225 14.2072 3.44014L14.1272 3.51687C11.1184 6.55575 11.1895 11.7475 11.197 12.0648C11.2004 12.2431 11.2085 12.4213 11.2211 12.5991C11.2728 13.4724 11.3694 15.0976 11.1118 16.9383C10.8727 18.6486 11.4 20.3227 12.5581 21.5312C12.6783 21.6561 12.803 21.7738 12.9323 21.8843C11.9601 22.9273 11.0169 23.9965 10.1039 25.0917ZM13.3193 20.8015C12.3858 19.8275 11.9616 18.4726 12.156 17.0842C12.4277 15.1399 12.3274 13.4465 12.2737 12.537L12.2554 12.2103C12.6951 11.8205 14.7321 10.7292 16.1845 11.062C16.8473 11.2141 17.2513 11.6651 17.4193 12.4419C18.2884 16.4619 17.5342 18.1374 16.9283 19.4833C16.8035 19.7606 16.6854 20.0228 16.5846 20.294L16.5065 20.5035C16.3088 21.0336 16.1247 21.5265 16.0108 21.9945C15.0184 21.9916 14.0533 21.5675 13.3193 20.8015ZM13.4718 26.223C13.2225 26.1613 12.9849 26.0592 12.7685 25.9207C12.8961 25.8605 13.1235 25.779 13.5175 25.6976C15.4251 25.305 15.7198 25.0277 16.3634 24.2109C16.5107 24.0235 16.6783 23.8112 16.9095 23.5527C17.2546 23.1662 17.4123 23.2317 17.6985 23.3503C17.9306 23.4463 18.1561 23.7368 18.2479 24.0569C18.2912 24.2081 18.3397 24.4948 18.1806 24.7179C16.8365 26.5996 14.8781 26.5756 13.4714 26.2235L13.4718 26.223ZM23.4556 35.5138C21.122 36.0138 20.2953 34.8232 19.7511 33.4617C19.3994 32.5827 19.2271 28.6197 19.3495 24.2429C19.3512 24.1862 19.3436 24.1295 19.3269 24.0753C19.3121 23.9708 19.2902 23.8675 19.2615 23.766C19.0793 23.129 18.6349 22.5966 18.1024 22.3758C17.8906 22.2882 17.5022 22.1272 17.0352 22.2468C17.135 21.8367 17.3073 21.3735 17.4946 20.8716L17.5733 20.6607C17.6618 20.423 17.7724 20.1763 17.8901 19.9155C18.5242 18.5069 19.3928 16.5772 18.4503 12.2183C18.0972 10.5856 16.9184 9.78858 15.1313 9.9736C14.0598 10.0842 13.0797 10.5169 12.591 10.7645C12.4862 10.8175 12.3892 10.8692 12.3001 10.9194C12.4366 9.27449 12.9521 6.20031 14.8804 4.25506C16.0946 3.03056 17.7117 2.42561 19.6819 2.45809C23.5639 2.52165 26.0534 4.51398 27.4582 6.17395C28.6686 7.60464 29.3244 9.0457 29.5861 9.82295C27.6187 9.62287 26.2803 10.0113 25.6019 10.9811C24.126 13.0906 26.4093 17.185 27.5067 19.1528C27.7077 19.5135 27.8814 19.8251 27.936 19.9574C28.2934 20.8232 28.7561 21.4013 29.0937 21.8236C29.1973 21.953 29.2975 22.0783 29.3743 22.1879C28.7783 22.3598 27.7082 22.7566 27.8056 24.7405C27.727 25.7362 27.1673 30.3974 26.8834 32.0442C26.5082 34.2196 25.7078 35.0303 23.4566 35.5129L23.4556 35.5138ZM33.1975 24.3658C32.5883 24.6487 31.5686 24.861 30.5997 24.9062C29.5296 24.9566 28.9849 24.7862 28.8569 24.6817C28.7966 23.4454 29.257 23.3159 29.7438 23.1794C29.8206 23.1577 29.8949 23.137 29.967 23.1116C30.0143 23.1501 30.0635 23.1862 30.1143 23.2199C30.9744 23.7876 32.5082 23.8489 34.6738 23.4016L34.6974 23.3969C34.4055 23.67 33.906 24.0367 33.1975 24.3658Z" fill="white"/>
</svg>
