<svg width="44" height="38" viewBox="0 0 44 38" fill="none" xmlns="http://www.w3.org/2000/svg">
<g clip-path="url(#clip0_1_70)">
<g clip-path="url(#clip1_1_70)">
<g clip-path="url(#clip2_1_70)">
<path d="M19.58 1.356L3.56401 7.978C2.66201 8.352 2.68401 9.606 3.58601 9.98L19.69 16.36C21.098 16.932 22.682 16.932 24.09 16.36L40.194 9.98C41.096 9.628 41.096 8.352 40.216 7.978L24.156 1.356C22.704 0.739997 21.054 0.739997 19.58 1.356Z" fill="#FCB400"/>
<path d="M23.298 19.858V35.808C23.298 36.556 24.068 37.084 24.772 36.798L42.724 29.824C43.142 29.67 43.406 29.274 43.406 28.834V12.884C43.406 12.136 42.636 11.608 41.932 11.894L23.98 18.846C23.562 19.022 23.298 19.418 23.298 19.858Z" fill="#18BFFF"/>
<path d="M19.118 20.672L13.794 23.246L13.244 23.51L2.00199 28.9C1.29799 29.252 0.373993 28.724 0.373993 27.932V12.95C0.373993 12.664 0.527993 12.422 0.725993 12.224C0.813993 12.136 0.901993 12.07 0.989993 12.026C1.25399 11.872 1.64999 11.828 1.95799 11.96L19.008 18.714C19.888 19.044 19.954 20.276 19.118 20.672Z" fill="#F82B60"/>
<path d="M19.118 20.672L13.794 23.246L0.725998 12.246C0.813998 12.158 0.901998 12.092 0.989998 12.048C1.254 11.894 1.65 11.85 1.958 11.982L19.008 18.736C19.888 19.044 19.954 20.276 19.118 20.672Z" fill="#BA1E45"/>
</g>
</g>
</g>
<defs>
<clipPath id="clip0_1_70">
<rect width="44" height="37.4" fill="white" transform="translate(0 0.300003)"/>
</clipPath>
<clipPath id="clip1_1_70">
<rect width="44" height="37.4" fill="white" transform="translate(0 0.300003)"/>
</clipPath>
<clipPath id="clip2_1_70">
<rect width="44" height="37.4" fill="white" transform="translate(0 0.300003)"/>
</clipPath>
</defs>
</svg>
