<svg width="44" height="44" viewBox="0 0 44 44" fill="none" xmlns="http://www.w3.org/2000/svg">
<g clip-path="url(#clip0_2_3105)">
<g clip-path="url(#clip1_2_3105)">
<path d="M43.4076 44C43.4076 43.718 43.4782 43.5064 43.4782 43.3654C43.4782 42.1666 43.4782 40.8974 43.4782 39.6987C43.4782 26.7244 43.4782 13.6795 43.4782 0.705128C43.4782 0 43.4782 0 42.7731 0C37.5552 0 32.3371 0 27.1192 0C26.6256 0 26.4846 0.141043 26.4846 0.634632C26.4846 3.10258 26.4846 5.49999 26.4846 7.96794C26.4846 8.46153 26.6961 8.60257 27.1192 8.60257C29.5166 8.60257 31.9141 8.60257 34.241 8.60257C34.9461 8.60257 34.9461 8.60257 34.9461 9.30769C34.9461 14.1026 34.9461 18.8975 34.9461 23.6922C34.9461 29.0512 34.9461 34.3397 34.9461 39.6987C34.9461 40.0512 34.9462 40.3334 35.3693 40.5449C37.4847 41.4615 39.6 42.4487 41.6449 43.3654C42.209 43.5064 42.773 43.718 43.4076 44ZM30.7859 28.2756C30.7859 23.2692 30.7859 18.2628 30.7859 13.2564C30.7859 12.6217 30.7858 12.6218 30.1512 12.6218C24.8627 12.6218 19.6449 12.6218 14.3564 12.6218C13.8628 12.6218 13.7217 12.7629 13.7217 13.2564C13.7217 15.7244 13.7217 18.1218 13.7217 20.5897C13.7217 21.0834 13.9333 21.2243 14.3564 21.2243C16.6833 21.2243 19.0102 21.2243 21.3371 21.2243C22.2537 21.2243 22.2539 21.0834 22.2539 22.141C22.2539 27.9936 22.2539 33.7756 22.2539 39.6282C22.2539 40.1218 22.3948 40.4039 22.8883 40.5449C23.9461 40.968 24.9333 41.4615 25.991 41.9551C27.4718 42.5897 28.882 43.2243 30.3628 43.9295C30.7154 44.0705 30.8563 44 30.8563 43.6475C30.8563 43.5064 30.8563 43.3654 30.8563 43.2243C30.7858 38.1475 30.7859 33.2115 30.7859 28.2756ZM18.0937 34.6924C18.0937 31.8013 18.0937 28.8397 18.0937 25.9487C18.0937 25.5256 17.9525 25.3141 17.459 25.3141C12.241 25.3141 6.95247 25.3141 1.73452 25.3141C1.09991 25.3141 1.09998 25.3141 1.09998 25.9487C1.09998 29.7564 1.09998 33.6346 1.09998 37.4422C1.09998 37.9358 1.24104 38.1475 1.66411 38.2885C3.2154 38.782 4.69616 39.3461 6.24745 39.9102C9.98462 41.1795 13.7217 42.5192 17.459 43.7885C18.0935 44 18.0937 44 18.0937 43.2949C18.0937 40.4744 18.0937 37.5834 18.0937 34.6924Z" fill="#03273D"/>
</g>
</g>
<defs>
<clipPath id="clip0_2_3105">
<rect width="44" height="44" fill="white"/>
</clipPath>
<clipPath id="clip1_2_3105">
<rect width="44" height="44" fill="white"/>
</clipPath>
</defs>
</svg>
