<svg width="48" height="48" viewBox="0 0 48 48" fill="none" xmlns="http://www.w3.org/2000/svg">
<rect width="22.5656" height="10.0631" rx="5.03153" transform="matrix(-1 0 0 1 23.1094 12.5057)" fill="#36C5F0"/>
<path d="M23.1094 5.18729C23.1094 2.40845 20.8567 0.155762 18.0778 0.155762C15.299 0.155762 13.0463 2.40845 13.0463 5.18729C13.0463 7.96613 15.299 10.2188 18.0778 10.2188H23.1094V5.18729Z" fill="#36C5F0"/>
<rect width="22.5656" height="10.0631" rx="5.03153" transform="matrix(0 1 1 0 13.0469 24.8544)" fill="#E01E5A"/>
<path d="M5.72684 24.8541C2.948 24.8541 0.695313 27.1068 0.695313 29.8857C0.695313 32.6645 2.94801 34.9172 5.72684 34.9172C8.50568 34.9172 10.7584 32.6645 10.7584 29.8857L10.7584 24.8541H5.72684Z" fill="#E01E5A"/>
<rect width="22.5656" height="10.0631" rx="5.03153" transform="matrix(1 0 0 -1 25.3984 34.9175)" fill="#ECB22E"/>
<path d="M25.3984 42.2357C25.3984 45.0145 27.6511 47.2672 30.43 47.2672C33.2088 47.2672 35.4615 45.0145 35.4615 42.2357C35.4615 39.4568 33.2088 37.2042 30.43 37.2042H25.3984V42.2357Z" fill="#ECB22E"/>
<rect width="22.5656" height="10.0631" rx="5.03153" transform="matrix(0 -1 -1 0 35.457 22.5657)" fill="#2EB67D"/>
<path d="M42.7771 22.5657C45.5559 22.5657 47.8086 20.313 47.8086 17.5341C47.8086 14.7553 45.5559 12.5026 42.7771 12.5026C39.9982 12.5026 37.7455 14.7553 37.7455 17.5341V22.5657H42.7771Z" fill="#2EB67D"/>
</svg>
