<svg width="44" height="44" viewBox="0 0 44 44" fill="none" xmlns="http://www.w3.org/2000/svg">
<g clip-path="url(#clip0_1_20)">
<g clip-path="url(#clip1_1_20)">
<path d="M8.1969 37.1697L31.1728 21.9116L8.1969 6.56455C7.2212 5.94344 6.60001 4.79046 6.60001 3.54826V0L34.4552 18.0968C35.7858 18.9838 36.4955 20.4033 36.4955 21.9116C36.4955 23.4193 35.6969 24.839 34.4552 25.7259L6.60001 44V40.1855C6.60001 39.0323 7.13265 37.8793 8.1969 37.1697Z" fill="#004CFF"/>
<path d="M21.4147 23.1533C20.173 23.9515 18.5758 23.9515 17.3341 23.1533L14.1404 21.113L6.60001 16.0564V13.1289C6.60001 11.976 7.93058 11.3549 8.81774 11.976L23.3662 21.8227L21.4147 23.1533Z" fill="#004CFF"/>
</g>
</g>
<defs>
<clipPath id="clip0_1_20">
<rect width="44" height="44" fill="white"/>
</clipPath>
<clipPath id="clip1_1_20">
<rect width="44" height="44" fill="white"/>
</clipPath>
</defs>
</svg>
