<svg width="44" height="44" viewBox="0 0 44 44" fill="none" xmlns="http://www.w3.org/2000/svg">
<g clip-path="url(#clip0_1_65)">
<g clip-path="url(#clip1_1_65)">
<g clip-path="url(#clip2_1_65)">
<path fill-rule="evenodd" clip-rule="evenodd" d="M43.4452 21.4715L38.28 19.8066C34.9761 18.7165 33.0406 16.0431 32.1322 12.6837L29.8592 1.6117C29.7999 1.39294 29.6552 1.10001 29.2103 1.10001C28.8358 1.10001 28.6207 1.39294 28.5614 1.6117L26.2885 12.6874C25.3762 16.0468 23.4444 18.7202 20.1407 19.8103L14.9755 21.4752C14.245 21.7125 14.2339 22.7433 14.9607 22.9918L20.1629 24.7827C23.4555 25.8765 25.3762 28.5463 26.2885 31.8909L28.5651 42.8404C28.6244 43.0592 28.7468 43.4522 29.214 43.4522C29.6975 43.4522 29.7997 43.0744 29.8594 42.8535L29.8629 42.8404L32.1396 31.8909C33.0517 28.5426 34.9724 25.8729 38.2651 24.7827L43.4674 22.9918C44.1867 22.7396 44.1756 21.7088 43.4452 21.4715ZM13.8631 31.1047C10.8024 30.0942 10.4979 28.9564 9.98755 27.0489L9.97349 26.9963L8.67942 22.4578C8.60155 22.1649 7.83771 22.1649 7.75613 22.4578L6.87735 26.6515C6.35452 28.5833 5.24214 30.1184 3.34367 30.7451L0.317981 32.0576C-0.101017 32.1949 -0.108433 32.7881 0.310565 32.9291L3.3585 34.008C5.24956 34.6347 6.35452 36.1698 6.88106 38.0942L7.75984 42.1062C7.84142 42.3992 8.60155 42.3992 8.67942 42.1062L9.71023 38.1128C10.233 36.1772 11.034 34.6385 13.6036 34.008L16.4661 32.9291C16.8851 32.7844 16.8814 32.1912 16.4587 32.054L13.8631 31.1047ZM14.658 2.23555C14.7586 1.82002 15.3494 1.81338 15.452 2.23117L16.5785 6.88151C16.7322 7.4146 17.1497 7.8278 17.6861 7.97358L20.5504 8.74529C20.9381 8.8541 20.9503 9.39708 20.571 9.52578L17.567 10.5345C17.0841 10.6966 16.7095 11.0832 16.5592 11.5697L15.452 15.876L15.4518 15.8771C15.3476 16.2968 14.7628 16.2796 14.662 15.8766L13.5915 11.5833C13.4444 11.0966 13.0729 10.7067 12.5938 10.5415L9.59214 9.50257C9.21029 9.36619 9.2409 8.82356 9.62586 8.72226L12.4705 7.98421C13.0209 7.84164 13.4511 7.41821 13.5978 6.86956L14.658 2.23555Z" fill="url(#paint0_linear_1_65)"/>
</g>
</g>
</g>
<defs>
<linearGradient id="paint0_linear_1_65" x1="7.47093e-08" y1="1.10001" x2="51.7038" y2="15.1974" gradientUnits="userSpaceOnUse">
<stop stop-color="#5B60E8"/>
<stop offset="0.5" stop-color="#AA7BEC"/>
<stop offset="1" stop-color="#EC7B8E"/>
</linearGradient>
<clipPath id="clip0_1_65">
<rect width="44" height="44" fill="white"/>
</clipPath>
<clipPath id="clip1_1_65">
<rect width="44" height="44" fill="white"/>
</clipPath>
<clipPath id="clip2_1_65">
<rect width="44" height="44" fill="white"/>
</clipPath>
</defs>
</svg>
