<svg width="39" height="38" viewBox="0 0 39 38" fill="none" xmlns="http://www.w3.org/2000/svg">
<g clip-path="url(#clip0_601_39324)">
<g clip-path="url(#clip1_601_39324)">
<g clip-path="url(#clip2_601_39324)">
<path d="M22.9106 9.65873C19.5672 9.65873 16.2718 11.0941 13.7559 13.9161V-0.000366211H8.77734V23.429V23.4308C8.77734 31.0368 14.9432 37.2026 22.5493 37.2026C30.1553 37.2026 36.3212 31.0368 36.3212 23.4308C36.3212 15.8248 30.5166 9.65873 22.9106 9.65873ZM22.5493 31.8982C17.8727 31.8982 14.0816 28.1071 14.0816 23.4307C14.0816 18.7542 17.8727 14.963 22.5493 14.963C27.2257 14.963 31.0168 18.7542 31.0168 23.4307C31.0168 28.1072 27.2257 31.8982 22.5493 31.8982Z" fill="#262626"/>
<path d="M5.15948 30.3913C3.27858 30.3913 1.75391 31.9161 1.75391 33.7969C1.75391 35.6777 3.27858 37.2024 5.15948 37.2024C7.04036 37.2024 8.56504 35.6777 8.56504 33.7969C8.56504 31.9161 7.04036 30.3913 5.15948 30.3913Z" fill="#0000FF"/>
</g>
</g>
</g>
<defs>
<clipPath id="clip0_601_39324">
<rect width="37.203" height="37.203" fill="white" transform="translate(0.824219)"/>
</clipPath>
<clipPath id="clip1_601_39324">
<rect width="37.203" height="37.203" fill="white" transform="translate(0.824219 -0.00012207)"/>
</clipPath>
<clipPath id="clip2_601_39324">
<rect width="37.203" height="37.203" fill="white" transform="translate(0.824219 -0.000244141)"/>
</clipPath>
</defs>
</svg>
