<svg width="44" height="44" viewBox="0 0 44 44" fill="none" xmlns="http://www.w3.org/2000/svg">
<path d="M6.75468 0.429683C5.93827 -0.206255 4.77812 -0.128911 4.03906 0.601558L0.601556 4.03906C-0.128912 4.76953 -0.206256 5.92968 0.421088 6.75468L7.29609 15.6922C7.68281 16.1992 8.29296 16.5 8.9289 16.5H13.5781L22.9453 25.8672C21.682 28.3594 22.0859 31.4875 24.1742 33.5672L33.7992 43.1922C34.8734 44.2664 36.618 44.2664 37.6922 43.1922L43.1922 37.6922C44.2664 36.618 44.2664 34.8734 43.1922 33.7992L33.5672 24.1742C31.4875 22.0945 28.3594 21.682 25.8672 22.9453L16.5 13.5781V8.9375C16.5 8.29296 16.1992 7.6914 15.6922 7.30468L6.75468 0.429683ZM1.71015 34.0398C0.618744 35.1312 -6.11624e-06 36.618 -6.11624e-06 38.1648C-6.11624e-06 41.3875 2.61249 44 5.83515 44C7.38203 44 8.86874 43.3812 9.96015 42.2898L20.0836 32.1664C19.4133 30.3703 19.3102 28.4195 19.7742 26.5719L14.4719 21.2695L1.71015 34.0398ZM44 12.375C44 11.4727 43.9055 10.5961 43.725 9.7539C43.5187 8.7914 42.3414 8.54218 41.6453 9.23828L36.1539 14.7297C35.8961 14.9875 35.5437 15.1336 35.1828 15.1336H30.25C29.4937 15.1336 28.875 14.5148 28.875 13.7586V8.81718C28.875 8.45625 29.0211 8.1039 29.2789 7.84609L34.7703 2.35468C35.4664 1.65859 35.2172 0.481245 34.2547 0.274995C33.4039 0.0945267 32.5273 -4.531e-06 31.625 -4.531e-06C24.793 -4.531e-06 19.25 5.54296 19.25 12.375V12.4437L26.5805 19.7742C29.6742 18.9922 33.0945 19.8172 35.518 22.2406L36.8672 23.5898C41.0781 21.6133 44 17.3336 44 12.375ZM4.81249 37.125C4.81249 36.578 5.02979 36.0534 5.41659 35.6666C5.80338 35.2798 6.32798 35.0625 6.87499 35.0625C7.422 35.0625 7.94661 35.2798 8.3334 35.6666C8.7202 36.0534 8.93749 36.578 8.93749 37.125C8.93749 37.672 8.7202 38.1966 8.3334 38.5834C7.94661 38.9702 7.422 39.1875 6.87499 39.1875C6.32798 39.1875 5.80338 38.9702 5.41659 38.5834C5.02979 38.1966 4.81249 37.672 4.81249 37.125Z" fill="#212529"/>
</svg>
