<svg width="37" height="34" viewBox="0 0 37 34" fill="none" xmlns="http://www.w3.org/2000/svg">
<path fill-rule="evenodd" clip-rule="evenodd" d="M29.0479 17.6714C24.7113 17.6733 21.1956 21.189 21.1937 25.5256C21.1956 29.8628 24.7113 33.3779 29.0479 33.3804C33.3851 33.3779 36.9002 29.8628 36.9021 25.5256C36.9002 21.189 33.3851 17.6733 29.0479 17.6714ZM8.63151 17.672C4.29488 17.6745 0.779204 21.1896 0.777344 25.5274C0.779204 29.8641 4.29488 33.3797 8.63151 33.3816C12.9688 33.3797 16.4838 29.8641 16.4863 25.5274C16.4838 21.1902 12.9688 17.6751 8.63151 17.6727V17.672ZM26.6892 7.85417C26.688 12.1914 23.1729 15.7071 18.8357 15.7102C14.4984 15.7077 10.9834 12.192 10.9815 7.85417C10.9834 3.51754 14.499 0.00186015 18.835 0C23.1717 0.0024802 26.6874 3.51754 26.6892 7.85417Z" fill="url(#paint0_radial_601_39448)"/>
<defs>
<radialGradient id="paint0_radial_601_39448" cx="0" cy="0" r="1" gradientUnits="userSpaceOnUse" gradientTransform="translate(1669.83 1835.99) scale(2420.33 2420.4)">
<stop stop-color="#FFB900"/>
<stop offset="0.6" stop-color="#F95D8F"/>
<stop offset="0.9991" stop-color="#F95353"/>
</radialGradient>
</defs>
</svg>
