<svg width="38" height="38" viewBox="0 0 38 38" fill="none" xmlns="http://www.w3.org/2000/svg">
<g clip-path="url(#clip0_601_39272)">
<g clip-path="url(#clip1_601_39272)">
<g clip-path="url(#clip2_601_39272)">
<path d="M0.765625 -0.000244141H37.9686V37.2027H0.765625V-0.000244141Z" fill="white"/>
<path d="M4.85938 22.2442L9.69626 27.0745H4.85938V22.2442ZM4.85938 21.0366L10.9055 27.0745H15.7424L4.85938 16.2061V21.0366ZM4.85938 14.9985L16.9516 27.0745H21.7883L4.85938 10.1682V14.9985ZM10.9055 14.9985L22.9976 27.0745V22.2442L10.9054 10.1682L10.9055 14.9985ZM16.9516 10.1682V14.9985L22.9976 21.0366V16.2061L16.9516 10.1682Z" fill="#F9BD2B"/>
<path d="M33.8794 25.1425C32.641 25.1425 31.4532 24.6512 30.5767 23.7764L23.8516 17.0603V27.0746H33.8794V25.1425Z" fill="black"/>
<path d="M26.7526 25.1424C27.2868 25.1424 27.7198 24.7099 27.7198 24.1762C27.7198 23.6428 27.2868 23.2102 26.7526 23.2102C26.2182 23.2102 25.7852 23.6428 25.7852 24.1762C25.7852 24.7099 26.2182 25.1424 26.7526 25.1424Z" fill="white"/>
<path d="M4.85938 27.0745H9.69626L4.85938 22.2442V27.0745ZM10.9055 16.2061L4.85938 10.1682V14.9985L10.9055 21.0366V16.2061ZM4.85938 16.2061V21.0366L10.9055 27.0745V22.2442L4.85938 16.2061Z" fill="#1D4AFF"/>
<path d="M16.9524 16.2064L10.9062 10.1685V14.9988L16.9524 21.0368V16.2064ZM10.9062 27.0747H15.7431L10.9062 22.2444V27.0747ZM10.9062 16.2064V21.0368L16.9524 27.0747V22.2444L10.9062 16.2064Z" fill="#F54E00"/>
</g>
</g>
</g>
<defs>
<clipPath id="clip0_601_39272">
<rect width="37.203" height="37.203" fill="white" transform="translate(0.765625)"/>
</clipPath>
<clipPath id="clip1_601_39272">
<rect width="37.203" height="37.203" fill="white" transform="translate(0.765625 0.000244141)"/>
</clipPath>
<clipPath id="clip2_601_39272">
<rect width="37.203" height="37.203" fill="white" transform="translate(0.765625)"/>
</clipPath>
</defs>
</svg>
