<svg width="38" height="38" viewBox="0 0 38 38" fill="none" xmlns="http://www.w3.org/2000/svg">
<g clip-path="url(#clip0_601_39367)">
<g clip-path="url(#clip1_601_39367)">
<g clip-path="url(#clip2_601_39367)">
<path fill-rule="evenodd" clip-rule="evenodd" d="M36.1463 9.0481H21.8898V0.229614L0.367188 4.01054V33.2897L21.8898 36.9733V28.6357H36.1463C36.7278 28.6357 37.1109 28.1511 37.1109 27.6712V10.0218C37.1109 9.44033 36.7232 9.05728 36.1463 9.05728V9.0481ZM10.4497 25.2429C3.37649 24.7583 3.6631 11.8636 10.6435 11.4759C18.3022 11.0883 18.1084 25.7279 10.4497 25.2429ZM35.9475 27.3758H21.8898V16.3233L26.2531 20.4924C26.4469 20.6862 26.6408 20.7831 26.9315 20.7831C27.2222 20.7831 27.416 20.6912 27.6103 20.4924L35.9475 12.7362V27.3758ZM35.9475 11.0883L26.9315 19.4259L21.8898 14.6745V10.2193H35.8506V11.092H35.9424L35.9475 11.0883ZM10.6439 14.0935C6.86301 14.2873 6.7661 22.528 10.5521 22.6249C14.5268 22.8187 14.5268 13.8996 10.6439 14.0935Z" fill="#2372BA"/>
</g>
</g>
</g>
<defs>
<clipPath id="clip0_601_39367">
<rect width="37.203" height="37.203" fill="white" transform="translate(0.136719)"/>
</clipPath>
<clipPath id="clip1_601_39367">
<rect width="37.203" height="37.203" fill="white" transform="translate(0.136719)"/>
</clipPath>
<clipPath id="clip2_601_39367">
<rect width="37.203" height="37.203" fill="white" transform="translate(0.136719)"/>
</clipPath>
</defs>
</svg>
